<?xml version="1.0" encoding="UTF-8" standalone="no"?><!DOCTYPE svg PUBLIC "-//W3C//DTD SVG 1.1//EN" "http://www.w3.org/Graphics/SVG/1.1/DTD/svg11.dtd"><svg width="100%" height="100%" viewBox="0 0 500 500" version="1.1" xmlns="http://www.w3.org/2000/svg" xmlns:xlink="http://www.w3.org/1999/xlink" xml:space="preserve" style="fill-rule:evenodd;clip-rule:evenodd;stroke-linecap:round;stroke-linejoin:round;stroke-miterlimit:1.5;"><rect id="refresh" x="0" y="0" width="500" height="500" style="fill:none;"/><clipPath id="_clip1"><rect id="refresh1" x="0" y="0" width="500" height="500"/></clipPath><g clip-path="url(#_clip1)"><g><g><path d="M23.243,169.069c-0.85,-0.313 -1.529,-0.971 -1.868,-1.812c-0.339,-0.84 -0.307,-1.785 0.088,-2.601c10.74,-19.318 53.48,-43.848 53.48,-43.848c3.51,-2.835 7.035,-1.535 7.865,2.9c0,0 16.583,46.404 12.181,68.064c-0.227,0.869 -0.81,1.601 -1.606,2.017c-0.797,0.415 -1.731,0.475 -2.574,0.164c-12.221,-4.476 -55.355,-20.381 -67.566,-24.884Z"/><path d="M322.117,441.385c-23.33,9.359 -48.795,14.509 -75.454,14.509c-112.035,0 -202.993,-90.957 -202.993,-202.992c0,-26.659 5.15,-52.124 14.509,-75.455" style="fill:none;stroke:#000;stroke-width:40px;"/></g><g><path d="M192.111,57.336c17.36,-4.839 35.656,-7.426 54.551,-7.427l0.002,0c112.034,0.001 202.991,90.959 202.991,202.993c0,18.895 -2.587,37.191 -7.427,54.552" style="fill:none;stroke:#000;stroke-width:40px;"/><path d="M476.757,320.654c0.85,0.313 1.529,0.972 1.868,1.812c0.339,0.841 0.307,1.785 -0.088,2.601c-10.74,19.318 -53.48,43.849 -53.48,43.849c-3.51,2.834 -7.035,1.534 -7.865,-2.9c0,0 -16.583,-46.405 -12.181,-68.064c0.227,-0.869 0.81,-1.602 1.606,-2.018c0.797,-0.415 1.731,-0.475 2.574,-0.164c12.221,4.476 55.355,20.381 67.566,24.884Z"/></g></g></g></svg>