<?xml version="1.0" encoding="UTF-8" standalone="no"?><!DOCTYPE svg PUBLIC "-//W3C//DTD SVG 1.1//EN" "http://www.w3.org/Graphics/SVG/1.1/DTD/svg11.dtd"><svg width="100%" height="100%" viewBox="0 0 513 62" version="1.1" xmlns="http://www.w3.org/2000/svg" xmlns:xlink="http://www.w3.org/1999/xlink" xml:space="preserve" style="fill-rule:evenodd;clip-rule:evenodd;stroke-linecap:round;stroke-linejoin:round;stroke-miterlimit:1.5;"><rect id="Artboard1" x="0" y="0" width="512.242" height="62" style="fill:none;"/><path d="M496,61l-479.758,0c-8.279,0 -16.796,-2.233 -15,-15l4.459,-26.754l0.541,-3.246c1.795,-8.727 6.122,-14.551 15,-15l469.758,0c8.877,0.449 13.205,6.273 15,15l5,30c1.795,12.767 -6.721,15 -15,15Z" style="fill:none;"/><clipPath id="_clip1"><path d="M496,61l-479.758,0c-8.279,0 -16.796,-2.233 -15,-15l4.459,-26.754l0.541,-3.246c1.795,-8.727 6.122,-14.551 15,-15l469.758,0c8.877,0.449 13.205,6.273 15,15l5,30c1.795,12.767 -6.721,15 -15,15Z"/></clipPath><g clip-path="url(#_clip1)"><path d="M25.176,49.417c-12.313,0.15 -16.094,-3.724 -14.448,-11.984l4.816,-23.969c1.047,-6.764 6.474,-11.984 14.448,-11.985l452.258,0c7.974,0.001 13.401,5.221 14.448,11.985l4.816,23.969c1.646,8.26 -2.135,12.134 -14.448,11.984l-461.89,0Z" style="fill:none;stroke:#000;stroke-width:2px;"/></g><path d="M496,61l-479.758,0c-8.279,0 -16.796,-2.233 -15,-15l4.459,-26.754l0.541,-3.246c1.795,-8.727 6.122,-14.551 15,-15l469.758,0c8.877,0.449 13.205,6.273 15,15l5,30c1.795,12.767 -6.721,15 -15,15Z" style="fill:none;stroke:#000;stroke-width:2px;"/><text x="380.224px" y="39.864px" style="font-family:'RobotoCondensed-Bold', 'Roboto Condensed';font-weight:700;font-size:20px;">S<tspan x="393.025px 404.663px 418.402px 431.808px 443.622px 456.843px 470.786px " y="39.864px 39.864px 39.864px 39.864px 39.864px 39.864px 39.864px ">PACEBAR</tspan></text></svg>