<?xml version="1.0" encoding="UTF-8" standalone="no"?><!DOCTYPE svg PUBLIC "-//W3C//DTD SVG 1.1//EN" "http://www.w3.org/Graphics/SVG/1.1/DTD/svg11.dtd"><svg width="100%" height="100%" viewBox="0 0 501 500" version="1.1" xmlns="http://www.w3.org/2000/svg" xmlns:xlink="http://www.w3.org/1999/xlink" xml:space="preserve" style="fill-rule:evenodd;clip-rule:evenodd;stroke-linejoin:round;stroke-miterlimit:1.41421;"><rect id="play" x="0.234" y="0" width="500" height="500" style="fill:none;"/><path d="M427.297,237.753c3.775,2.833 5.997,7.278 5.997,11.998c0,4.72 -2.222,9.164 -5.997,11.997c-52.962,39.742 -222.881,167.248 -286.112,214.697c-4.545,3.41 -10.627,3.96 -15.71,1.419c-5.082,-2.54 -8.293,-7.735 -8.293,-13.417c0,-87.529 0,-341.863 0,-429.392c0,-5.683 3.211,-10.877 8.293,-13.418c5.083,-2.54 11.165,-1.991 15.71,1.42c63.231,47.448 233.15,174.954 286.112,214.696Z"/></svg>