<?xml version="1.0" encoding="UTF-8" standalone="no"?><!DOCTYPE svg PUBLIC "-//W3C//DTD SVG 1.1//EN" "http://www.w3.org/Graphics/SVG/1.1/DTD/svg11.dtd"><svg width="100%" height="100%" viewBox="0 0 500 500" version="1.1" xmlns="http://www.w3.org/2000/svg" xmlns:xlink="http://www.w3.org/1999/xlink" xml:space="preserve" style="fill-rule:evenodd;clip-rule:evenodd;stroke-linecap:round;stroke-linejoin:round;stroke-miterlimit:1.5;"><g><g><path d="M29.925,168.422c-0.851,-0.314 -1.53,-0.973 -1.869,-1.814c-0.338,-0.842 -0.305,-1.788 0.092,-2.603c10.628,-19.026 52.664,-43.152 52.664,-43.152c3.458,-2.792 6.931,-1.512 7.749,2.857c0,0 16.31,45.64 12.013,67.005c-0.226,0.87 -0.809,1.604 -1.606,2.02c-0.796,0.417 -1.732,0.477 -2.575,0.166c-12.093,-4.428 -54.385,-20.023 -66.468,-24.479Z"/><path d="M324.342,436.705c-22.986,9.221 -48.076,14.295 -74.342,14.295c-110.383,0 -200,-89.617 -200,-200c0,-26.266 5.074,-51.356 14.295,-74.342" style="fill:none;stroke:#000;stroke-width:25px;"/></g><g><path d="M196.252,58.317c17.105,-4.768 35.131,-7.317 53.747,-7.317l0.002,0c110.383,0.001 199.999,89.617 199.999,200c0,18.617 -2.549,36.643 -7.317,53.748" style="fill:none;stroke:#000;stroke-width:25px;"/><path d="M476.651,317.734c0.851,0.314 1.53,0.973 1.869,1.815c0.338,0.842 0.305,1.787 -0.092,2.603c-10.628,19.025 -52.663,43.152 -52.663,43.152c-3.459,2.792 -6.932,1.512 -7.75,-2.858c0,0 -16.31,-45.639 -12.013,-67.004c0.226,-0.87 0.809,-1.604 1.606,-2.021c0.796,-0.416 1.732,-0.476 2.575,-0.165c12.093,4.428 54.385,20.023 66.468,24.478Z"/></g></g></svg>