<?xml version="1.0" encoding="UTF-8" standalone="no"?><!DOCTYPE svg PUBLIC "-//W3C//DTD SVG 1.1//EN" "http://www.w3.org/Graphics/SVG/1.1/DTD/svg11.dtd"><svg width="100%" height="100%" viewBox="0 0 501 500" version="1.1" xmlns="http://www.w3.org/2000/svg" xmlns:xlink="http://www.w3.org/1999/xlink" xml:space="preserve" style="fill-rule:evenodd;clip-rule:evenodd;stroke-linecap:round;stroke-linejoin:round;stroke-miterlimit:1.5;"><rect id="pouse2" x="0.51" y="0" width="500" height="500" style="fill:none;"/><g><path d="M225.676,90.656c0,-6.852 -5.563,-12.416 -12.416,-12.416l-24.834,0c-6.853,0 -12.416,5.564 -12.416,12.416l0,319.927c0,6.853 5.563,12.417 12.416,12.417l24.834,0c6.853,0 12.416,-5.564 12.416,-12.417l0,-319.927Z" style="fill:none;stroke:#000;stroke-width:40px;"/><path d="M325.01,90.656c0,-6.852 -5.564,-12.416 -12.417,-12.416l-24.833,0c-6.853,0 -12.417,5.564 -12.417,12.416l0,319.927c0,6.853 5.564,12.417 12.417,12.417l24.833,0c6.853,0 12.417,-5.564 12.417,-12.417l0,-319.927Z" style="fill:none;stroke:#000;stroke-width:40px;"/></g></svg>