<?xml version="1.0" encoding="UTF-8" standalone="no"?><!DOCTYPE svg PUBLIC "-//W3C//DTD SVG 1.1//EN" "http://www.w3.org/Graphics/SVG/1.1/DTD/svg11.dtd"><svg width="100%" height="100%" viewBox="0 0 500 500" version="1.1" xmlns="http://www.w3.org/2000/svg" xmlns:xlink="http://www.w3.org/1999/xlink" xml:space="preserve" style="fill-rule:evenodd;clip-rule:evenodd;stroke-linejoin:round;stroke-miterlimit:1.41421;"><rect id="egg" x="0" y="0" width="500" height="500" style="fill:none;"/><clipPath id="_clip1"><rect id="egg1" x="0" y="0" width="500" height="500"/></clipPath><g clip-path="url(#_clip1)"><g><path d="M250,480c-96.386,0 -174.639,-96.371 -174.639,-192.757c0,-96.386 78.253,-267.243 174.639,-267.243c96.386,0 174.639,170.857 174.639,267.243c0,96.386 -78.253,192.757 -174.639,192.757ZM318.389,109.817c8.762,-3.628 25.249,16.065 36.795,43.949c11.545,27.885 13.805,53.469 5.043,57.097c-8.762,3.628 -25.249,-16.065 -36.794,-43.95c-11.546,-27.884 -13.806,-53.469 -5.044,-57.096Z"/></g></g></svg>