<?xml version="1.0" encoding="UTF-8" standalone="no"?><!DOCTYPE svg PUBLIC "-//W3C//DTD SVG 1.1//EN" "http://www.w3.org/Graphics/SVG/1.1/DTD/svg11.dtd"><svg width="100%" height="100%" viewBox="0 0 500 500" version="1.1" xmlns="http://www.w3.org/2000/svg" xmlns:xlink="http://www.w3.org/1999/xlink" xml:space="preserve" style="fill-rule:evenodd;clip-rule:evenodd;stroke-linecap:round;stroke-linejoin:round;stroke-miterlimit:1.5;"><rect id="curve-arrow" x="0" y="0" width="500" height="500" style="fill:none;"/><path d="M60,95c115.646,0 175.91,-1.178 228.248,1.865c117.204,6.816 100.913,74.563 99.748,253.135" style="fill:none;stroke:#000;stroke-width:40px;"/><path d="M424.021,350c0.907,0 1.771,0.383 2.38,1.054c0.609,0.671 0.905,1.569 0.817,2.471c-3.393,21.841 -35.007,59.643 -35.007,59.643c-2.313,3.874 -6.069,3.874 -8.383,0c0,0 -31.613,-37.801 -34.977,-59.646c-0.088,-0.894 0.206,-1.783 0.81,-2.449c0.603,-0.665 1.459,-1.044 2.358,-1.044c13.014,-0.029 58.987,-0.029 72.002,-0.029Z"/></svg>